<?xml version="1.0" encoding="UTF-8"?>
<svg width="221px" height="35px" viewBox="0 0 221 35" version="1.1" xmlns="http://www.w3.org/2000/svg" xmlns:xlink="http://www.w3.org/1999/xlink">
    <!-- Generator: Sketch 49 (51002) - http://www.bohemiancoding.com/sketch -->
    <title>OJ London logo@1x</title>
    <desc>Created with Sketch.</desc>
    <defs></defs>
    <g id="Symbols" stroke="none" stroke-width="1" fill="none" fill-rule="evenodd">
        <g id="DTP-top-nav---DARK-v2" transform="translate(-460.000000, -3.000000)" fill="#403129">
            <g id="top-nav---DARK-v2" transform="translate(0.000000, 3.000000)">
                <path d="M524.466929,12.6104635 L523.946889,9.69076951 C523.774354,8.73553594 523.610751,7.78233218 523.445929,6.8023348 L523.428473,6.69678413 C523.262839,5.6709128 523.085839,4.62474326 522.893006,3.52498646 L522.843478,3.2948048 L522.156587,3.2948048 L522.068493,3.39629583 C521.742098,3.80307188 521.384443,4.21796721 521.009738,4.6661516 L520.651272,5.09525567 C520.143817,5.691211 519.623371,6.30624664 519.115916,6.9289956 C518.895071,7.20911085 518.666513,7.48313663 518.448511,7.74944909 C518.161494,8.10020209 517.872854,8.44608352 517.600858,8.78506356 L517.373924,9.05543567 C516.957405,9.56289082 516.564431,10.0281257 516.195004,10.4746862 C515.928691,10.7844369 515.687549,11.0799787 515.466704,11.3446673 L515.0376,11.8598358 C514.836242,12.1086918 514.664519,12.3246647 514.518372,12.4971995 L514.490361,12.5329243 C513.026454,10.7921502 511.858089,9.38873221 510.825722,8.11278698 C509.604176,6.60950184 508.383442,5.02542984 507.178541,3.40969265 L507.094912,3.29642866 L506.282578,3.29642866 L506.242794,3.53066995 C506.1003,4.43881169 505.931825,5.39851087 505.739804,6.40124225 C505.551843,7.40356766 505.343583,8.42010182 505.113401,9.4544984 C504.889309,10.4901129 504.645325,11.5167961 504.40134,12.5329243 C504.15492,13.5510823 503.916619,14.5306738 503.694963,15.4489646 L503.601185,15.8439677 L503.997406,15.7871327 C504.486593,15.7290798 505.288372,15.72705 505.76132,15.7871327 L506.073912,15.8326007 L506.073912,15.5167606 C506.073912,15.0624868 506.116539,14.5083457 506.203009,13.803998 C506.265122,13.2596001 506.345502,12.6880026 506.44131,12.0961069 L506.514789,11.5468375 C506.637797,10.7466822 506.777448,9.92907045 506.927655,9.11267661 L506.967439,8.90238719 C507.063247,8.36448473 507.160272,7.85824748 507.236594,7.37758596 C508.326201,8.78506356 509.411343,10.1624998 510.350744,11.3406077 C511.449689,12.718044 512.523058,14.1226798 513.637024,15.6300246 L513.720247,15.7412588 L514.234603,15.7412588 L514.320668,15.6223113 C515.324211,14.1470377 516.435335,12.6579613 517.621156,11.2050157 L517.852555,10.9289601 C518.817532,9.75369395 519.820264,8.54676262 520.849789,7.34470286 C521.06292,8.46719366 521.256565,9.69076951 521.46117,11.1498046 L522.073364,15.8382842 L522.356321,15.7871327 C522.527638,15.7550615 522.719253,15.7412588 522.913304,15.7412588 L524.15799,15.7412588 C524.361378,15.7412588 524.552181,15.7587152 524.729588,15.7871327 L525.141235,15.862642 L525.048269,15.4566779 C524.808751,14.4096964 524.624037,13.4776028 524.466929,12.6104635 Z M543.414898,12.0108545 C543.064957,12.6782595 542.598504,13.2023592 541.983063,13.622938 C541.326213,14.063815 540.595883,14.3792491 539.743359,14.5915684 C538.91844,14.7961743 537.996901,14.8996951 536.937335,14.9033488 C535.914305,14.8996951 534.976528,14.7921146 534.145519,14.5915684 C533.297866,14.3755955 532.554546,14.0540719 531.935857,13.622938 C531.30986,13.2064188 530.833258,12.6782595 530.481693,12.0072008 C530.133782,11.3775504 529.954752,10.5993172 529.954752,9.68711584 C529.954752,8.77166675 530.133782,8.00926613 530.481693,7.36621896 C530.837318,6.69759606 531.319603,6.16294131 531.938698,5.75981894 C532.551704,5.32787311 533.297866,5.00228989 534.142272,4.79687204 C535.010629,4.58089913 535.951248,4.4737246 536.937335,4.47169478 C537.947373,4.4737246 538.887992,4.58089913 539.746606,4.79687204 C540.594259,4.99944814 541.326213,5.31731805 541.983063,5.75981894 C542.576988,6.15888167 543.058462,6.69962588 543.416928,7.36621896 C543.770523,8.02266294 543.949553,8.80373791 543.949553,9.68711584 C543.949553,10.5725236 543.770523,11.3560343 543.414898,12.0108545 Z M546.284253,12.3924607 C546.790896,11.5817504 547.048277,10.6732027 547.048277,9.67453095 C547.048277,8.66611607 546.790896,7.74944909 546.285065,6.94158049 C545.783293,6.15116835 545.071232,5.48010966 544.172427,4.94423702 C543.302446,4.40268088 542.261148,4.00564797 540.985203,3.71172995 C539.769746,3.43811013 538.402053,3.2948048 536.937335,3.2948048 C535.460843,3.2948048 534.147143,3.43202067 532.911388,3.71578959 C531.639097,4.01133147 530.599017,4.40836438 529.715639,4.94423702 C528.820488,5.48376334 528.113299,6.15888167 527.620864,6.93995664 C527.109755,7.74092384 526.85278,8.65840276 526.85278,9.67453095 C526.85278,10.680916 527.109755,11.5943353 527.615181,12.3924607 C528.116952,13.1861206 528.826172,13.8571793 529.715639,14.3930519 C530.627028,14.9394796 531.710953,15.3442259 532.917884,15.5902401 C534.132935,15.851681 535.450288,15.9730643 536.937335,15.9730643 C538.441432,15.976718 539.764063,15.851681 540.974648,15.5902401 C542.203095,15.3442259 543.270375,14.9411035 544.166744,14.3889923 C545.071232,13.8648926 545.783293,13.1877444 546.284253,12.3924607 Z M625.62994,9.97656825 C624.691757,9.99402471 623.77306,10.0037679 622.763021,9.96885494 C622.447993,9.95829987 622.134995,9.94855673 621.849196,9.94652691 L624.20054,6.38743947 L626.592075,9.95829987 C626.279077,9.96682512 625.94984,9.97656825 625.62994,9.97656825 Z M632.306832,14.177079 C631.952019,13.6472958 631.549709,13.0493107 631.095435,12.3819057 C630.682975,11.7709297 630.251029,11.1136738 629.782141,10.4028306 L628.153413,7.88828882 C627.801036,7.36215932 627.462868,6.83197018 627.129977,6.30624664 L626.652158,5.5633323 C626.167842,4.79687204 625.71844,4.07912748 625.290148,3.42146561 L625.201242,3.2948048 L624.423415,3.29236902 L624.332885,3.41740596 C622.971281,5.45656374 621.616985,7.4551251 620.275273,9.42242723 C619.037083,11.2147588 617.599564,13.2896414 616.132003,15.3580286 L615.769477,15.8500571 L616.375176,15.7871327 C617.060037,15.7290798 617.594692,15.7229904 618.265345,15.7871327 L618.472386,15.8123025 L618.553985,15.6243411 C618.796752,15.0624868 619.137762,14.4007652 619.546568,13.6627225 C619.998812,12.8723103 620.508703,12.0486091 620.983275,11.2610387 C621.483828,11.2484538 621.975045,11.235057 622.428913,11.2196304 C623.510807,11.2184125 624.649537,11.2184125 625.758225,11.2196304 C626.279077,11.235057 626.808454,11.2484538 627.325246,11.2650984 C627.462868,11.5005576 627.621194,11.7494136 627.780738,12.0011113 L627.974383,12.3246647 C628.135956,12.5824519 628.300778,12.8390213 628.466817,13.1008681 L628.757893,13.555142 C629.042068,14.0199709 629.25114,14.3715358 629.430576,14.7068622 C629.629904,15.0624868 629.798379,15.3783268 629.919763,15.6340842 L630.008669,15.8123025 L630.207591,15.7871327 C630.447922,15.760745 630.659835,15.7412588 630.858352,15.7412588 L632.260958,15.7412588 C632.484644,15.7412588 632.699805,15.760745 632.927551,15.7871327 L633.624997,15.8800985 L633.167882,15.3357006 C632.953533,15.09334 632.68519,14.7166053 632.306832,14.177079 Z M613.351555,0.0629244386 C613.167653,0.0706377569 612.960206,0.0706377569 612.756006,0.0706377569 L612.740579,0.0706377569 C612.531508,0.0706377569 612.324872,0.0706377569 612.086571,0.060894618 C611.89455,0.0511514791 611.677765,0.0454679815 611.468693,0.0271995961 L611.144328,0 L611.16625,0.327207081 C611.208876,0.73601295 611.232422,1.142789 611.266523,1.54794119 C611.295347,1.87920791 611.307932,2.2007315 611.341627,2.5242849 C611.378569,3.2314744 611.408611,7.44172829 611.408611,8.22320922 L611.408611,12.9039755 C611.408611,13.622938 611.378569,14.2050905 611.321329,14.686564 C611.263276,15.2009205 611.126872,15.6284007 610.916582,15.9953923 C610.707511,16.3526407 610.409939,16.6258546 610.04173,16.8048848 C609.628864,17.0135503 609.096239,17.1101698 608.403664,17.1101698 L607.969689,17.1101698 L608.435736,18.1526856 L608.609082,18.148626 C609.399494,18.148626 610.145656,18.0499767 610.832142,17.8534901 C611.508478,17.6679645 612.105245,17.3951566 612.609859,17.0431857 C613.102699,16.6839074 613.484305,16.2791612 613.750212,15.8248874 C614.027079,15.3783268 614.165513,14.8599107 614.165513,14.2818177 C614.165513,13.8766656 614.165513,13.4280752 614.156988,12.9303632 L614.133442,11.4218005 C614.1306,11.1498046 614.117203,10.8834921 614.108272,10.6139319 C614.099747,10.3455896 614.093657,10.0735937 614.091628,9.79753808 C614.078231,9.26004158 614.072547,8.73756576 614.069706,8.2211794 C614.072547,7.50749448 614.093657,3.23756386 614.147245,2.5299684 C614.173226,2.24660544 614.187029,1.95877688 614.216665,1.67297814 C614.243052,1.23007128 614.273094,0.781480931 614.318562,0.327207081 L614.344137,0 L614.023832,0.0251697755 C613.79162,0.0454679815 613.5724,0.0495276227 613.351555,0.0629244386 Z M565.125453,15.976718 L565.867556,15.976718 L565.867556,15.1534227 C565.867556,14.8716836 565.859842,14.5497541 565.852941,14.1709895 C565.833861,13.9030532 565.822088,13.622938 565.815592,13.3330796 L565.782303,11.7250557 C565.769718,11.302853 565.769718,10.9017605 565.769718,10.5181244 L565.769718,9.49793656 C565.769718,9.1727593 565.782303,8.73553594 565.811533,8.20575276 C565.836703,7.9179242 565.857001,7.62563003 565.879329,7.33211798 C565.895567,7.07433076 565.920737,6.81004812 565.947125,6.53399252 C565.966611,6.14913853 566.001524,5.77808732 566.033189,5.42286872 L566.078657,4.94017738 C566.105857,4.58455281 566.141988,4.29144671 566.172841,4.06451277 L566.230082,3.46774552 L565.871615,3.52498646 C565.544002,3.57816776 565.276878,3.60658524 565.086887,3.60658524 C564.857517,3.60658524 564.571718,3.5765439 564.225431,3.52498646 L563.885639,3.46774552 L563.909997,3.81849851 C563.995249,4.94423702 564.043559,5.98269324 564.065887,6.99679161 C564.095928,8.14404622 564.108513,9.34123441 564.108513,10.4608835 L564.108513,12.2735132 C563.399294,11.812338 562.600357,11.2707819 561.714543,10.6593999 L558.302008,8.29506487 C557.095077,7.4551251 555.888146,6.61315552 554.673095,5.75981894 C553.458451,4.90242272 552.312414,4.10064358 551.245946,3.35448153 L551.167595,3.3004883 L550.347953,3.3004883 L550.384896,3.61023892 C550.433206,3.97926031 550.447821,4.54152061 550.458376,5.33152679 C550.47299,6.10773019 550.47299,7.04631923 550.475832,8.13227326 C550.475832,8.51103778 550.475832,8.92674504 550.447821,9.41471391 C550.439295,9.8730474 550.412096,10.3573626 550.384896,10.8562925 C550.366222,11.3621238 550.330497,11.8561821 550.288683,12.344151 C550.263513,12.5901653 550.241591,12.830496 550.226976,13.0554001 C550.204648,13.2896414 550.185974,13.5173873 550.15918,13.736202 C550.129951,14.1604345 550.090166,14.5201187 550.056471,14.810383 L550.032113,14.9549063 C550.002072,15.1233814 549.97406,15.3121547 549.954574,15.353969 L549.754434,15.7761717 L550.211144,15.7510019 C550.791672,15.7307037 551.49399,15.7290798 552.086698,15.7510019 L552.432579,15.7741419 L552.368437,15.4258246 C552.350574,15.3519392 552.339613,15.1972668 552.337584,14.9333902 C552.3047,14.6885938 552.289274,14.3889923 552.269788,14.0540719 C552.251519,13.724835 552.234063,13.3505361 552.216606,12.9624344 L552.211735,12.5503808 C552.196308,12.2946234 552.185753,12.0429256 552.185753,11.7802668 C552.17195,11.5033993 552.169108,11.2330272 552.153682,10.9687446 L552.149622,10.6865995 C552.139879,10.3273213 552.139879,10.035839 552.139879,9.79753808 C552.139879,8.88858441 552.149622,8.16434442 552.169108,7.64227456 C552.180881,7.37190246 552.188595,7.12791802 552.209705,6.91356897 C552.211735,6.89530058 552.211735,6.87784412 552.209705,6.8555161 C553.189296,7.53631793 554.168482,8.21346608 555.157816,8.90238719 C556.31116,9.69279933 557.46897,10.4970143 558.627592,11.3008232 C560.993145,12.9494435 563.092385,14.4567883 565.054004,15.9255665 L565.125453,15.976718 Z M600.676543,15.0982116 L600.816601,14.2322901 L600.441084,14.2741044 C599.968948,14.3252559 599.484633,14.3678821 598.983267,14.3833088 L598.773789,14.3889923 C598.267958,14.4133501 597.743859,14.4287768 597.190935,14.4442034 C596.541799,14.4567883 595.899564,14.4628777 595.233782,14.4628777 L593.651334,14.4628777 C593.649304,14.3114531 593.648086,14.1295812 593.639561,13.9184799 L593.635908,13.7934429 C593.629006,13.3769237 593.613174,12.8507942 593.613174,12.1939443 L593.613174,10.5181244 C593.616421,10.3573626 593.629006,10.2246123 593.649304,10.0959217 L593.651334,10.0204124 L594.650006,10.0240661 C595.108339,10.035839 595.597526,10.035839 596.091585,10.0435523 L596.375353,10.047612 C596.978616,10.047612 597.580255,10.0597909 598.177022,10.081307 L598.499358,10.0979515 C598.963781,10.1190617 599.381112,10.1413897 599.74242,10.171431 L600.161781,10.2063439 L600.034308,9.81174682 C599.997365,9.68386812 599.966512,9.53609718 599.966512,9.38873221 C599.968948,9.21985113 599.997365,9.0708623 600.034308,8.93648818 L600.157721,8.55447594 L599.757847,8.57883379 C599.379082,8.59913199 598.973118,8.61658845 598.546856,8.63404491 C598.348339,8.65231329 598.136426,8.65840276 597.921265,8.66205643 C597.674033,8.67382939 597.413404,8.68073078 597.137754,8.69209778 C596.641666,8.71158406 596.07494,8.72416894 595.465588,8.72822859 C594.928903,8.7416254 594.334166,8.75136854 593.674474,8.75136854 C593.67082,8.68438446 593.666761,8.60481549 593.666761,8.53336581 L593.649304,8.05676393 C593.629006,7.64227456 593.616421,7.20545717 593.613174,6.76823381 C593.613174,6.31761364 593.639561,5.95630557 593.65783,5.65345634 C593.682999,5.40622419 593.696802,5.13706998 593.711011,4.86466805 C594.453113,4.86466805 595.094943,4.87441119 595.630409,4.88131258 C595.936506,4.89673922 596.229206,4.91419568 596.515817,4.92028514 C596.791467,4.92678056 597.06874,4.94423702 597.329369,4.95195034 C597.650893,4.96859487 597.957802,4.98808115 598.265116,5.00228989 L598.794088,5.02542984 C599.01818,5.03923262 599.249579,5.05181751 599.497218,5.06156065 C599.76556,5.07130379 600.03512,5.07901711 600.334316,5.09931531 L600.717952,5.12042545 L600.611183,4.74166092 C600.570587,4.60322716 600.544199,4.45992182 600.544199,4.32920138 C600.542575,4.1875199 600.570587,4.039343 600.613213,3.89603766 L600.713892,3.53472959 L600.337157,3.53878924 C599.554458,3.55705762 598.782721,3.56680076 598.017072,3.5765439 C596.420821,3.5822274 594.850552,3.5822274 593.346049,3.5765439 C592.582837,3.56680076 591.797702,3.55705762 591.036519,3.53878924 L590.738136,3.53472959 L590.766147,3.83027147 C590.785633,4.26302923 590.80309,4.69619294 590.827448,5.1334163 L590.864391,6.00420934 C590.883877,6.72682547 590.911888,7.46568017 590.911888,8.21346608 L590.911888,11.1400614 C590.911888,11.880134 590.883877,12.6202066 590.864391,13.3253663 L590.827448,14.2050905 C590.80309,14.6390662 590.785633,15.0624868 590.766147,15.5029578 L590.738136,15.806619 L591.041391,15.7907864 C591.836675,15.760745 592.605165,15.7412588 593.380962,15.7412588 L598.120999,15.7412588 C598.907352,15.7412588 599.69005,15.760745 600.460164,15.7907864 L600.852326,15.806619 L600.73419,15.4258246 C600.704555,15.3442259 600.674513,15.2269022 600.676543,15.0982116 Z M494.814904,8.89467387 C493.925436,9.00793786 492.958836,9.02174064 492.201307,8.98763966 C492.010503,8.97992634 491.830255,8.96815338 491.656909,8.94988499 L491.656909,8.22320922 C491.656909,7.61182725 491.68695,6.98704847 491.716991,6.40124225 C491.734448,6.041964 491.753528,5.68227979 491.770985,5.32300154 L491.801026,4.78712891 C491.974373,4.77373209 492.159492,4.76195913 492.364098,4.7554637 L492.573982,4.74166092 C493.234891,4.72258061 494.206363,4.65640846 495.456327,4.80011976 C495.936582,4.87441119 496.355131,4.99173482 496.706696,5.1447833 C497.072064,5.29011845 497.372072,5.50243769 497.599005,5.76184876 C497.810107,6.00420934 497.916875,6.30056315 497.916875,6.67323821 C497.917687,7.11411524 497.778036,7.46973981 497.492237,7.75716241 C497.205626,8.06244743 496.826862,8.31049151 496.3734,8.48221433 C495.875688,8.68073078 495.353618,8.81307509 494.814904,8.89467387 Z M501.610337,14.6825043 L501.322508,14.4705911 C500.980687,14.1981891 500.601922,13.9107665 500.217474,13.5928966 C499.756299,13.2218454 499.289034,12.8353676 498.799035,12.4294035 L498.568448,12.2414421 C498.15883,11.9081455 497.760579,11.5817504 497.381815,11.2784952 C497.03228,10.9813295 496.679497,10.6975605 496.357973,10.4405852 L496.152555,10.2700803 C496.015745,10.1547865 495.888273,10.0541074 495.77785,9.95424023 C496.127386,9.90308875 496.490723,9.8312331 496.863398,9.74395081 C497.469097,9.61323037 498.074389,9.41106024 498.662631,9.13459867 C499.249656,8.85894903 499.739654,8.51387953 500.133034,8.10020209 C500.561326,7.65973102 500.764714,7.13360152 500.764714,6.4990796 C500.764714,5.93357158 500.601922,5.4468206 500.267814,5.05181751 C499.932487,4.66249792 499.4977,4.3628964 498.986185,4.15666663 C498.467769,3.92810883 497.855575,3.77506035 497.183298,3.68209457 C496.543905,3.58912879 495.84727,3.53878924 495.041432,3.53878924 C494.523421,3.53878924 494.011501,3.55096816 493.52272,3.5607113 C492.544346,3.59318843 491.514415,3.5822274 490.536854,3.5765439 C490.058628,3.56680076 489.552797,3.55705762 489.03641,3.53878924 L488.735185,3.53472959 L488.756701,3.83717286 C488.791614,4.28738707 488.822467,4.73597743 488.841953,5.18456778 C488.862252,5.4740202 488.87849,5.75981894 488.895135,6.03425068 L488.90772,6.29000808 C488.938573,6.92331211 488.968614,7.56838909 488.968614,8.22320922 L488.968614,11.1575179 C488.968614,11.812338 488.938573,12.4497017 488.908532,13.0870653 L488.847637,14.1372945 C488.821249,14.595628 488.791614,15.0421885 488.756701,15.4887491 L488.730313,15.8200158 L489.058738,15.7871327 C489.431819,15.7587152 489.830882,15.7412588 490.315197,15.7412588 C490.803572,15.7412588 491.209536,15.7587152 491.559883,15.7871327 L491.885466,15.8208277 L491.853395,15.4993041 C491.814829,14.7961743 491.770985,14.0828953 491.738101,13.3594673 C491.700347,12.525617 491.68289,11.8269527 491.68492,11.1575179 L491.68289,10.1791444 L492.322284,10.1791444 C492.812283,10.522184 493.375355,10.941545 494.076861,11.4908144 C494.648052,11.9459002 495.208283,12.4042337 495.756334,12.8662209 L496.071362,13.1142649 C496.705884,13.6606926 497.29575,14.1709895 497.826345,14.6496212 L498.017554,14.8201262 C498.460867,15.2147233 498.79051,15.5090473 499.011355,15.7173069 L499.112034,15.806619 L499.244784,15.7871327 C499.457103,15.7510019 499.692156,15.7412588 499.964558,15.7412588 L501.520213,15.7412588 C501.787743,15.7412588 502.033758,15.7587152 502.265157,15.7871327 L503.487515,15.9633211 L502.451901,15.2804895 C502.230244,15.1416498 501.956218,14.9411035 501.610337,14.6825043 Z M573.319027,8.25528038 C573.319027,7.63253142 573.325929,7.03292242 573.349069,6.43696709 C573.370179,5.94290876 573.39819,5.44885042 573.4465,4.96453523 C573.917824,4.92678056 574.443548,4.89673922 575.032602,4.86872769 C576.951594,4.77170227 578.653802,4.78712891 580.158305,5.02542984 C581.027068,5.1650815 581.762269,5.40257051 582.402474,5.75981894 C582.999242,6.10367055 583.494112,6.5782426 583.838369,7.16729654 C584.196836,7.77664869 584.374648,8.55447594 584.374648,9.48453974 C584.374648,10.5347689 584.147308,11.4173349 583.691005,12.0904234 C583.241196,12.7521449 582.65336,13.2839579 581.932774,13.6801789 C581.163472,14.0897967 580.353573,14.3516436 579.444214,14.4872356 C577.707905,14.7486765 576.17945,14.7466467 574.680631,14.663424 C574.159779,14.6390662 573.762746,14.6090248 573.454619,14.5761417 C573.361247,13.5238827 573.319027,12.4156007 573.319027,11.1891831 L573.319027,8.25528038 Z M570.525182,13.3545957 C570.474031,14.0812715 570.422473,14.7900848 570.362391,15.4887491 L570.339251,15.8123025 L570.658744,15.7871327 C571.192993,15.7587152 571.756471,15.7412588 572.386934,15.7412588 L574.140293,15.7412588 C574.73706,15.7412588 575.328956,15.7453184 575.896087,15.7741419 C577.481377,15.806619 579.210784,15.806619 580.936944,15.4826596 C582.082981,15.2918565 583.123061,14.9549063 584.117267,14.4531346 C585.069253,13.9631359 585.870626,13.3050681 586.513673,12.4951697 C587.148195,11.6475166 587.460381,10.6593999 587.458352,9.4544984 C587.460381,8.52362267 587.299214,7.71007057 586.95252,6.9833948 C586.624907,6.24413413 586.080509,5.60758239 585.338407,5.091602 C584.625534,4.59835559 583.716986,4.22162089 582.558771,3.94353546 C581.431814,3.67641107 580.092945,3.53878924 578.547033,3.53878924 C577.871915,3.53878924 577.221966,3.54447273 576.556997,3.56274112 C575.258318,3.58912879 573.917824,3.5822274 572.611026,3.5765439 C571.9558,3.56680076 571.305851,3.55705762 570.651437,3.53878924 L570.344122,3.53472959 L570.362391,3.83717286 C570.422473,4.58455281 570.474031,5.32300154 570.525182,6.041964 C570.57471,6.67932767 570.59988,7.37190246 570.59988,8.22320922 L570.59988,11.1575179 C570.59988,12.0108545 570.57471,12.7115485 570.525182,13.3545957 Z M679.936978,15.4071503 C679.897194,15.3182441 679.874866,15.206604 679.874866,15.09334 L679.884609,14.8793969 L680.046182,14.2322901 L679.646308,14.2741044 C679.178637,14.3252559 678.693916,14.3678821 678.204729,14.3833088 L677.983073,14.3889923 C677.478459,14.4133501 676.946646,14.4328364 676.399407,14.4442034 C675.75027,14.4567883 675.09748,14.4628777 674.448343,14.4628777 L672.85737,14.4628777 C672.847221,14.2854714 672.839913,14.063815 672.839913,13.7934429 C672.835448,13.3728641 672.831388,12.8507942 672.831388,12.1939443 L672.831388,10.5181244 C672.835448,10.421099 672.839913,10.3378763 672.839913,10.250594 L672.847221,10.0204124 L673.868221,10.0220362 C674.316405,10.035839 674.80275,10.035839 675.309393,10.0435523 L675.581389,10.047612 C676.176532,10.047612 676.781825,10.0597909 677.37778,10.081307 L677.707017,10.0979515 C678.173064,10.1190617 678.58593,10.1413897 678.955763,10.171431 L679.381213,10.2079678 L679.23669,9.80606332 C679.198529,9.68711584 679.179449,9.5551775 679.179449,9.38873221 C679.179449,9.20077082 679.194064,9.06883248 679.23669,8.94785517 L679.373906,8.55447594 L678.961446,8.57883379 C678.580652,8.59913199 678.187273,8.61658845 677.747614,8.63404491 C677.551939,8.65231329 677.350581,8.65434312 677.139073,8.66205643 C676.886564,8.67382939 676.620251,8.68438446 676.347849,8.69209778 C675.837146,8.71158406 675.279352,8.72213912 674.663504,8.72822859 C674.135345,8.7416254 673.541419,8.75136854 672.869549,8.74933872 C672.865489,8.56746679 672.861429,8.33484935 672.839913,8.07016075 L672.839913,7.42995533 C672.835448,7.21114067 672.831388,6.98704847 672.831388,6.76823381 C672.831388,6.34806095 672.839913,5.9729501 672.869549,5.65345634 C672.882946,5.41109576 672.899184,5.16020993 672.913799,4.89673922 L672.913799,4.86466805 C673.662803,4.86466805 674.298137,4.87441119 674.844564,4.88131258 C675.147819,4.89673922 675.44052,4.91419568 675.711704,4.92272092 C676.001968,4.92678056 676.281271,4.94423702 676.533781,4.95195034 C676.843126,4.96859487 677.155718,4.98808115 677.461815,5.00228989 L677.994846,5.02542984 C678.220156,5.03923262 678.459675,5.05181751 678.702847,5.05750101 C678.974031,5.07130379 679.248869,5.07901711 679.543599,5.09931531 L679.96296,5.12042545 L679.816001,4.72826411 C679.770533,4.59429595 679.740086,4.45626815 679.740086,4.32514174 C679.740086,4.19442129 679.770533,4.05111596 679.82006,3.90943448 L679.950375,3.53472959 L679.556996,3.53878924 C678.758058,3.55705762 677.985103,3.56680076 677.219454,3.5765439 C675.64269,3.5822274 674.064707,3.5822274 672.557362,3.5765439 C671.771822,3.56680076 671.013075,3.55705762 670.240119,3.54041309 L669.938082,3.53472959 L669.962846,3.83514304 C670.009938,4.55491743 670.036731,5.28524688 670.057029,6.00583319 C670.085041,6.72682547 670.102497,7.4608086 670.102497,8.21184222 L670.102497,11.1400614 C670.102497,11.880134 670.085041,12.6202066 670.057029,13.3391691 C670.036731,14.0540719 670.009938,14.776688 669.961222,15.5029578 L669.938082,15.806619 L670.244991,15.7907864 C671.044334,15.760745 671.81932,15.7412588 672.591057,15.7412588 L677.340838,15.7412588 C678.10608,15.7412588 678.896492,15.760745 679.675131,15.7907864 L680.113978,15.806619 L679.936978,15.4071503 Z M664.697491,3.6025256 C664.460814,3.60658524 664.176233,3.57816776 663.855521,3.52498646 L663.502739,3.46490377 L663.529126,3.81849851 C663.592051,4.68482595 663.650104,5.66685315 663.680145,6.99313794 C663.704097,8.11278698 663.721553,9.2791219 663.721553,10.4629133 L663.721553,12.2771669 C663.014364,11.812338 662.212585,11.2707819 661.322305,10.6593999 L660.093046,9.80119175 C659.383827,9.31687656 658.659587,8.81307509 657.913425,8.29506487 L650.779823,3.3004883 L649.941913,3.3004883 L649.984539,3.61998206 C650.038533,3.97357681 650.060049,4.53746097 650.066138,5.32787311 C650.090902,6.10773019 650.094962,7.04631923 650.094962,8.13227326 C650.094962,8.51103778 650.090902,8.93039872 650.060049,9.40497077 C650.047464,9.8730474 650.029195,10.3593924 649.984539,10.8562925 C649.968707,11.3621238 649.941913,11.8561821 649.893603,12.3547061 C649.867216,12.7976129 649.819718,13.2161619 649.787647,13.6091352 L649.77019,13.7739566 C649.735277,14.177079 649.712543,14.5237724 649.655302,14.8639703 C649.623231,15.0856267 649.590348,15.3064712 649.561525,15.365742 L649.378841,15.7761717 L649.825807,15.7510019 C650.401059,15.7307037 651.141131,15.7290798 651.694054,15.7510019 L652.023697,15.7741419 L651.986754,15.4428751 C651.973358,15.365742 651.949812,15.2009205 651.936415,14.9492228 C651.914899,14.7011787 651.893789,14.3967056 651.876332,14.0540719 L651.876332,13.9310647 C651.860906,13.6286215 651.849945,13.2973548 651.822339,12.9604045 L651.788238,11.7989412 C651.785396,11.5362824 651.785396,11.2784952 651.783366,11.0227378 L651.770782,10.6654894 C651.746424,10.3196079 651.746424,10.035839 651.746424,9.79753808 C651.746424,9.00022455 651.76388,8.34256267 651.783366,7.83470156 L651.785396,7.6305016 C651.79108,7.34673268 651.804882,7.0783904 651.822339,6.84942664 C653.957304,8.32510621 656.097141,9.81580646 658.236166,11.3008232 C660.845297,13.12482 662.892169,14.595628 664.653647,15.9235367 L664.733216,15.9730643 L665.471259,15.976718 L665.471259,15.1534227 C665.471259,14.8716836 665.466387,14.5517839 665.453802,14.1868221 C665.453802,13.8275439 665.440405,13.4406601 665.423761,12.9798908 C665.418889,12.7034293 665.410364,12.4306214 665.396561,12.1561896 L665.381947,11.7250557 C665.377481,11.3069127 665.377481,10.9017605 665.377481,10.5181244 L665.377481,9.49793656 C665.377481,9.1727593 665.392096,8.73553594 665.423761,8.19803944 C665.453802,7.82211667 665.481814,7.42995533 665.519568,7.03292242 L665.617406,5.72571795 C665.641764,5.45291006 665.664092,5.19025128 665.687232,4.94423702 L665.724174,4.48022003 C665.759899,4.21187775 665.780197,4.00158833 665.799684,3.83514304 L665.861796,3.45922027 L665.485873,3.52498646 C665.150547,3.5765439 664.884235,3.60658524 664.697491,3.6025256 Z M645.881866,3.5765439 C645.644783,3.5765439 645.315546,3.57248426 644.890096,3.53878924 L644.739889,3.52498646 L644.644893,3.65205323 C644.292516,4.1400221 643.90888,4.64098182 643.514283,5.15452643 C643.110755,5.6709128 642.703573,6.18323952 642.257824,6.68501117 C641.815323,7.19733789 641.388249,7.6893664 640.933975,8.18748438 C640.578351,8.59913199 640.212171,8.98763966 639.903232,9.30347974 C639.064105,8.35514756 638.255424,7.43563883 637.499113,6.5465774 C636.779744,5.691211 635.940211,4.67224106 635.121381,3.64596376 L635.031663,3.53066995 L634.893229,3.53878924 C634.634224,3.55705762 634.391863,3.56680076 634.164524,3.5765439 C633.683862,3.5822274 633.176407,3.5822274 632.743649,3.5765439 C632.514685,3.56680076 632.276384,3.55705762 632.019815,3.54041309 L631.271217,3.48520197 L631.812367,4.01133147 C632.004388,4.19848093 632.247561,4.45626815 632.571114,4.81717025 C632.873152,5.1334163 633.199953,5.49269455 633.54827,5.88079625 L634.02203,6.40124225 C634.336246,6.73453879 634.652898,7.07433076 634.977264,7.42995533 C635.213535,7.68165308 635.441281,7.9337568 635.664967,8.17408756 C635.87891,8.40264536 636.080674,8.63404491 636.292588,8.84920589 L636.681095,9.27749804 C636.944566,9.56126696 637.180837,9.82757942 637.417514,10.0756235 L637.739038,10.421099 C637.883561,10.5838906 638.014281,10.7243542 638.108059,10.8380241 C638.108059,11.7193722 638.100346,12.5515987 638.086949,13.3671806 C638.068275,14.2980563 638.00941,14.9431333 637.907919,15.4635793 L637.844588,15.8200158 L638.209956,15.7871327 C639.109573,15.7229904 639.825693,15.7173069 640.735053,15.7871327 L641.054141,15.8123025 L641.001771,15.2423289 C640.979443,15.0458422 640.962799,14.8201262 640.949402,14.5497541 L640.917737,13.9996727 C640.903528,13.7662433 640.89825,13.5238827 640.880794,13.2782744 C640.865367,12.8248125 640.850753,12.3547061 640.839792,11.8837877 C640.843851,11.6438629 640.839792,11.4015023 640.839792,11.1729445 C640.828425,10.9890428 640.828425,10.8116365 640.828425,10.6297645 C641.092707,10.3098648 641.406518,9.94652691 641.755241,9.54178068 C642.14456,9.10699311 642.589497,8.61658845 643.094922,8.07016075 C643.597912,7.53063443 644.180064,6.92534193 644.839756,6.26280848 C645.512033,5.58769015 646.263066,4.83665653 647.10666,4.01133147 L647.644156,3.47748865 L646.887845,3.53878924 C646.458335,3.57248426 646.114483,3.5765439 645.881866,3.5765439 Z M481.413622,11.0665819 C480.953665,11.9081455 480.347966,12.5881354 479.55593,13.1309095 C478.730199,13.6866743 477.776995,14.1011637 476.710528,14.3573271 C475.599404,14.6272932 474.396532,14.7620733 473.123429,14.7620733 C471.873871,14.7620733 470.68805,14.6272932 469.593571,14.3573271 C468.527103,14.1031935 467.585266,13.7061606 466.733147,13.1329393 C465.932586,12.5690551 465.31958,11.880134 464.89413,11.0665819 C464.449599,10.2384151 464.224695,9.23730759 464.224695,8.08477545 C464.224695,6.9289956 464.449599,5.93357158 464.89413,5.10865249 C465.31958,4.29144671 465.935834,3.59481228 466.72787,3.04432494 C467.590138,2.4654201 468.534816,2.06798123 469.593571,1.81628347 C470.694951,1.54591137 471.877931,1.41153725 473.123429,1.41153725 C474.388819,1.41153725 475.59575,1.54794119 476.710528,1.81628347 C477.773342,2.07407069 478.723704,2.48490638 479.55593,3.04432494 C480.349996,3.58912879 480.953665,4.26302923 481.413622,5.10865249 C481.852469,5.96239503 482.081027,6.96309659 482.081027,8.08477545 C482.081027,9.20645432 481.852469,10.2112155 481.413622,11.0665819 Z M482.25275,2.13780706 C481.157865,1.46268873 479.803568,0.942648687 478.229645,0.592707616 C476.685358,0.246014257 474.966912,0.0706377569 473.123429,0.0706377569 C471.312017,0.0706377569 469.613869,0.248044077 468.058214,0.592707616 C466.490787,0.940618867 465.176275,1.4460442 464.042823,2.13780706 C462.928858,2.80642996 462.034519,3.64596376 461.38457,4.64098182 C460.753296,5.6493967 460.438268,6.8023348 460.438268,8.05676393 C460.438268,9.31890638 460.755732,10.4629133 461.392283,11.4656446 C462.02031,12.457821 462.911401,13.3070979 464.042823,13.9785626 C465.162472,14.6691075 466.481044,15.1631659 468.056996,15.4964624 C469.583827,15.8123025 471.284005,15.9730643 473.123429,15.9730643 C474.994111,15.976718 476.709716,15.8123025 478.231269,15.4964624 C479.81047,15.161136 481.167608,14.6467795 482.245848,13.9785626 C483.388231,13.3014144 484.252935,12.4817728 484.902072,11.461585 C485.532534,10.4706266 485.855275,9.32377795 485.855275,8.05879375 C485.855275,6.79462148 485.532534,5.64452513 484.902072,4.64098182 C484.252935,3.63622062 483.361844,2.79831068 482.25275,2.13780706 Z M575.909484,31.9712983 C575.692293,32.2871384 575.411366,32.5388362 575.065891,32.7211141 C574.723663,32.9098874 574.308768,33.0406078 573.856524,33.1120575 C573.054745,33.2375004 572.247282,33.2411541 571.488941,33.1916265 C571.296108,33.1879728 571.130475,33.1782297 570.985545,33.1619911 C570.949415,32.6752401 570.925057,32.1718446 570.925057,31.6099903 L570.925057,30.14243 C570.925057,29.8391748 570.93886,29.5456627 570.952662,29.2432194 C570.957534,29.0369897 570.970931,28.8384732 570.985545,28.6415806 C571.192993,28.6318375 571.422363,28.614787 571.666347,28.5961126 C572.475434,28.5624176 573.459491,28.5624176 574.221891,28.6736518 C574.653025,28.739418 574.989976,28.8538998 575.298914,29.0235928 C575.588773,29.1843546 575.811647,29.4039812 575.974033,29.6861263 C576.136012,29.9418837 576.230196,30.3100931 576.230196,30.7566537 C576.230196,31.2466524 576.113684,31.6652014 575.909484,31.9712983 Z M576.924395,28.4690459 C576.555779,28.2047632 576.086485,28.0131482 575.490123,27.8714667 C574.925021,27.7293792 574.235288,27.6672667 573.444064,27.6672667 C573.100213,27.6672667 572.77057,27.6672667 572.445392,27.6847232 C571.795038,27.7127347 571.123979,27.7163884 570.467941,27.6895947 C570.145606,27.6847232 569.820022,27.6770099 569.485914,27.6672667 L569.176569,27.6498103 L569.263852,29.0524163 C569.289021,29.4121005 569.295111,29.7730026 569.295111,30.1460836 L569.295111,31.6099903 C569.295111,31.974952 569.289021,32.3403197 569.263852,32.6910727 L569.176569,34.0672911 L569.479825,34.0530823 C569.772525,34.0433392 570.060353,34.0392796 570.348182,34.0392796 L571.235213,34.0392796 C571.527914,34.0392796 571.824267,34.0392796 572.108036,34.0433392 C572.920776,34.0754104 573.776143,34.0636374 574.665204,33.9016577 C575.263189,33.7989488 575.811647,33.6227604 576.305299,33.3702507 C576.806259,33.1161171 577.230897,32.7730775 577.552421,32.3594 C577.893837,31.918929 578.062718,31.3830563 578.062718,30.753406 C578.062718,30.2837055 577.971782,29.8489179 577.792346,29.4591923 C577.606414,29.0690608 577.316962,28.7345464 576.924395,28.4690459 Z M587.080399,31.9623671 C586.922479,32.2648104 586.693921,32.518538 586.399597,32.7211141 C586.104055,32.9159768 585.737064,33.0767386 585.331911,33.1753879 C584.496031,33.3702507 583.448644,33.3824296 582.602209,33.1733581 C582.1796,33.0767386 581.83859,32.9330273 581.532493,32.7190842 C581.238169,32.518538 581.011235,32.2648104 580.846008,31.9623671 C580.693771,31.6668252 580.612579,31.307547 580.602429,30.8747892 C580.612579,30.4404076 580.693771,30.0774757 580.846008,29.7827458 C581.011235,29.4835502 581.238169,29.2298226 581.532493,29.0292763 C581.83859,28.8210168 582.1796,28.6639086 582.600991,28.5721607 C583.013856,28.4731055 583.473002,28.4199242 583.963406,28.4199242 C584.452593,28.4199242 584.910521,28.4731055 585.331911,28.5721607 C585.737064,28.6639086 586.104055,28.8230466 586.399597,29.033336 C586.693921,29.2298226 586.922479,29.4835502 587.080399,29.7827458 C587.244408,30.0831592 587.32276,30.4481209 587.321542,30.8747892 C587.321542,31.295774 587.244408,31.6652014 587.080399,31.9623671 Z M587.663769,28.3935365 C587.203406,28.1117974 586.641552,27.8978543 586.019615,27.7622623 C584.742046,27.4841769 583.194104,27.4841769 581.912476,27.7622623 C581.2743,27.901508 580.724625,28.1215406 580.270351,28.3935365 C579.803492,28.6639086 579.429599,29.0235928 579.159633,29.4303689 C578.893727,29.8623147 578.756105,30.3429762 578.756917,30.8747892 C578.756917,31.3968591 578.893727,31.8832041 579.162069,32.3102784 C579.429599,32.7247677 579.801868,33.0767386 580.270351,33.3527942 C580.728684,33.6345333 581.2743,33.8407631 581.919783,33.9658 C582.535225,34.1034219 583.227799,34.17 583.963406,34.17 C584.701449,34.17 585.387123,34.1034219 586.013525,33.9658 C586.641552,33.8468526 587.207466,33.6345333 587.663769,33.3527942 C588.13347,33.0669955 588.504521,32.7211141 588.760278,32.3102784 C589.034304,31.8994427 589.174768,31.4191871 589.174768,30.8747892 C589.174768,30.3291735 589.034304,29.8489179 588.760278,29.4303689 C588.504521,29.0292763 588.138341,28.6793353 587.663769,28.3935365 Z M597.638308,27.6672667 L597.285931,27.6051542 L597.310289,27.9644325 C597.364282,28.4414403 597.387422,28.953767 597.41178,29.5407911 C597.420305,30.1026455 597.426395,30.6807384 597.426395,31.2754758 L597.426395,31.918929 C597.134506,31.7269079 596.799586,31.5024098 596.443149,31.250712 L596.243415,31.1216154 C595.768031,30.787507 595.26017,30.4404076 594.730387,30.0754459 C594.123876,29.6520253 593.519396,29.2375359 592.909232,28.806402 L591.131515,27.5442596 L590.534748,27.5442596 L590.555046,27.8475148 C590.566819,28.0403477 590.57575,28.3257405 590.587117,28.7036931 L590.600514,30.1026455 C590.600514,30.2690908 590.587117,30.4578641 590.57575,30.6681535 L590.554234,31.454912 C590.536777,31.7009262 590.515261,31.9566836 590.494963,32.1949846 C590.484408,32.3403197 590.473041,32.4807833 590.457614,32.6074441 L590.429197,32.8964906 C590.420672,33.0803923 590.399156,33.2411541 590.385759,33.4262737 C590.359371,33.5647075 590.342321,33.64996 590.3273,33.7039532 L590.215254,34.0810939 L590.615129,34.0530823 C590.879005,34.0392796 591.242749,34.0392796 591.529766,34.0530823 L591.903659,34.0810939 L591.812723,33.7116665 C591.799732,33.7023293 591.791207,33.6345333 591.785523,33.4977234 C591.77781,33.3702507 591.77172,33.2411541 591.764007,33.0540046 L591.707984,31.941257 C591.707984,31.7423346 591.707984,31.5499076 591.707172,31.375343 C591.696211,31.2048381 591.696211,31.0595029 591.696211,30.9385256 C591.696211,30.4842518 591.696211,30.1249735 591.707984,29.8651565 L591.707984,29.723881 C592.726142,30.4087424 593.724814,31.0992874 594.723485,31.8024173 C595.884949,32.6074441 596.970091,33.3885191 597.943593,34.113165 L598.017072,34.17 L598.572431,34.17 L598.572431,33.6162649 C598.572431,33.4948817 598.568372,33.3527942 598.561876,33.1993398 L598.561876,33.129514 C598.561876,32.9553554 598.561876,32.7811967 598.548885,32.529093 L598.533459,31.8791445 C598.528993,31.6745386 598.522904,31.4800817 598.521686,31.2998337 L598.521686,30.7895368 C598.522904,30.6226855 598.533459,30.4128021 598.554975,30.1586685 L598.608968,29.3187288 C598.63698,29.0369897 598.658496,28.7755488 598.671892,28.5206033 C598.699092,28.2802725 598.71939,28.0963708 598.736847,27.9733637 L598.786374,27.6015005 L598.417353,27.6672667 C598.082027,27.7245077 597.940345,27.7163884 597.638308,27.6672667 Z M555.767168,31.9643969 C555.591386,32.2704939 555.368918,32.518538 555.074188,32.7211141 C554.781894,32.9159768 554.421397,33.0803923 554.008532,33.1753879 C553.172652,33.366191 552.133384,33.3702507 551.271116,33.1753879 C550.86231,33.0803923 550.510745,32.9330273 550.204648,32.7190842 C549.913166,32.518538 549.686638,32.2725237 549.517757,31.9623671 C549.357807,31.6668252 549.277426,31.307547 549.277426,30.8747892 C549.281486,30.4404076 549.357807,30.0754459 549.514915,29.7827458 C549.686638,29.4778667 549.913978,29.2298226 550.195717,29.0292763 C550.510745,28.8210168 550.86231,28.6639086 551.271116,28.5721607 C551.692507,28.4731055 552.149622,28.4199242 552.633125,28.4199242 C553.125154,28.4199242 553.593231,28.4731055 554.008532,28.5721607 C554.421397,28.6639086 554.781894,28.8230466 555.074188,29.033336 C555.366888,29.2298226 555.591386,29.4738071 555.767168,29.7827458 C555.921841,30.0831592 556.005063,30.4481209 556.005063,30.8747892 C556.005063,31.295774 555.921841,31.6652014 555.767168,31.9643969 Z M556.341608,28.3919127 C555.880026,28.1097676 555.322232,27.8978543 554.696641,27.7622623 C554.047504,27.6120556 553.373198,27.5442596 552.633937,27.5442596 C551.914163,27.5442596 551.22849,27.6274822 550.590314,27.7602325 C549.960258,27.901508 549.405305,28.1215406 548.945347,28.3919127 C548.479301,28.6639086 548.101348,29.0235928 547.841937,29.4303689 C547.572377,29.8623147 547.438003,30.3429762 547.435161,30.8747892 C547.438003,31.3968591 547.572377,31.8832041 547.841937,32.3102784 C548.105408,32.7247677 548.480113,33.0767386 548.945347,33.3527942 C549.398809,33.6345333 549.960258,33.8407631 550.590314,33.9658 C551.215093,34.1034219 551.900766,34.17 552.633125,34.17 C553.382941,34.17 554.054406,34.1034219 554.69177,33.9658 C555.322232,33.8468526 555.880026,33.6345333 556.343232,33.3527942 C556.802377,33.0803923 557.17424,32.7247677 557.438117,32.3102784 C557.710113,31.8937592 557.840021,31.4151275 557.840021,30.8747892 C557.840021,30.3332331 557.710113,29.8505418 557.438117,29.4303689 C557.17424,29.0235928 556.805625,28.6639086 556.341608,28.3919127 Z M546.871277,33.5529345 C546.869247,33.5431914 546.871277,33.4948817 546.911873,33.4096292 L547.090903,32.9833669 L546.633788,33.027211 C545.958669,33.0844519 545.367992,33.1104336 544.814662,33.1161171 C544.323446,33.1238305 543.825734,33.1258603 543.294733,33.1258603 L543.272405,31.9944383 C543.26185,31.4646551 543.258196,30.8532731 543.25982,30.14243 C543.25982,29.7730026 543.270375,29.4121005 543.294733,29.0524163 C543.316249,28.7471313 543.334517,28.445094 543.356845,28.1300658 L543.39663,27.6311359 L543.061303,27.6672667 C542.946822,27.67498 542.850202,27.6847232 542.73978,27.6895947 C542.55669,27.7163884 542.35046,27.7163884 542.150726,27.6895947 C542.045987,27.686753 541.950992,27.67498 541.832044,27.6672667 L541.504837,27.6311359 L541.527977,28.0529326 C541.551929,28.3975962 541.580346,28.7268331 541.593743,29.0585058 C541.619725,29.4157542 541.636369,29.7730026 541.636369,30.14243 L541.636369,31.6099903 C541.636369,31.9712983 541.619725,32.3403197 541.593743,32.6975681 C541.580346,33.0592822 541.551929,33.4096292 541.521076,33.7611941 L541.504837,34.0636374 L541.886443,34.0530823 C542.274951,34.0433392 542.650468,34.0392796 543.019895,34.0392796 L545.449996,34.0392796 C545.846623,34.0392796 546.254211,34.0433392 546.650432,34.0530823 L547.099835,34.0733805 L546.903348,33.660921 C546.869247,33.5850057 546.871277,33.5529345 546.871277,33.5529345 Z M566.314116,27.6672667 L565.958898,27.6051542 L565.998276,27.9644325 C566.036031,28.4414403 566.061201,28.953767 566.084747,29.5407911 C566.097331,30.1026455 566.105857,30.6807384 566.105857,31.2754758 L566.109104,31.918929 C565.80179,31.7269079 565.473365,31.5024098 565.11571,31.250712 L564.926125,31.1216154 C564.444652,30.787507 563.931107,30.4404076 563.411879,30.0754459 C562.932435,29.745803 562.457051,29.4121005 561.975578,29.078398 L559.814225,27.5442596 L559.194318,27.5442596 L559.227201,27.8540102 C559.2544,28.0460312 559.260896,28.33183 559.267797,28.7093766 C559.270639,29.0991022 559.270639,29.5590595 559.270639,30.1026455 C559.270639,30.2690908 559.267797,30.4619237 559.260896,30.6681535 L559.227201,31.4589716 C559.211774,31.7009262 559.194318,31.9546538 559.166306,32.2075694 C559.157375,32.3671133 559.143978,32.518538 559.136265,32.665497 L559.102976,32.99311 C559.085519,33.1559016 559.07334,33.2963652 559.052636,33.4319572 C559.036398,33.5667373 559.023001,33.6556435 559.005544,33.7039532 L558.897558,34.0810939 L559.292967,34.0530823 C559.560497,34.0392796 559.918964,34.0392796 560.197861,34.0530823 L560.526286,34.0770342 L560.485689,33.740084 C560.485689,33.7080128 560.475946,33.6325035 560.464985,33.4977234 C560.461332,33.4262737 560.45849,33.3430511 560.448747,33.2508972 L560.412616,32.506765 C560.404903,32.3102784 560.398407,32.1194752 560.387446,31.9335437 C560.387446,31.8336765 560.387446,31.7346212 560.383792,31.6416555 C560.383792,31.5458479 560.376891,31.4646551 560.376891,31.375343 L560.376891,31.295774 C560.372019,31.1565283 560.367554,31.0400166 560.367554,30.9385256 C560.367554,30.4842518 560.376891,30.1249735 560.387446,29.8623147 C560.394348,29.8091334 560.394348,29.7693489 560.394348,29.723881 C561.397079,30.4087424 562.39778,31.0992874 563.399294,31.8024173 C564.565629,32.6074441 565.645087,33.3885191 566.617372,34.1091054 L566.691257,34.17 L567.244992,34.17 L567.244992,33.6142351 C567.244992,33.4948817 567.244992,33.3527942 567.233625,33.1993398 L567.233625,33.129514 C567.233625,32.9553554 567.233625,32.7771371 567.222664,32.529093 L567.212109,31.8791445 C567.209267,31.6745386 567.201554,31.4800817 567.201554,31.2998337 L567.201554,30.787507 C567.201554,30.6324287 567.214951,30.4144259 567.235655,30.1026455 C567.253111,29.8489179 567.272192,29.5821995 567.289648,29.3187288 L567.316848,28.9574207 C567.330245,28.806402 567.347701,28.6582251 567.352573,28.5206033 C567.366375,28.2802725 567.398041,28.0963708 567.411031,27.9733637 L567.456499,27.6051542 L567.093161,27.6672667 C566.760677,27.7293792 566.613718,27.7163884 566.314116,27.6672667 Z" id="OJ-London-logo"></path>
            </g>
        </g>
    </g>
</svg>